<svg width="322" height="263" viewBox="0 0 322 263" fill="none" xmlns="http://www.w3.org/2000/svg">
<path d="M158.778 0.0684399C158.533 0.107604 158.161 0.215307 157.946 0.293636C157.73 0.381756 157.378 0.469876 157.162 0.509041C156.947 0.538414 156.526 0.695073 156.232 0.84194C155.938 0.998598 155.557 1.15526 155.38 1.18463C155.204 1.22379 154.901 1.37066 154.695 1.50774C154.489 1.64481 154.166 1.81126 153.97 1.8798C153.775 1.94834 153.422 2.14416 153.187 2.3204C151.816 3.29951 150.69 4.13176 150.602 4.23946C150.553 4.29821 150.397 4.4255 150.26 4.51362C149.878 4.76819 148.81 5.83542 148.36 6.4131C147.851 7.07889 147.636 7.35304 146.754 8.52798C146.01 9.50709 145.599 9.85958 145.168 9.85958C144.933 9.85958 144.806 9.79104 143.856 9.14482C143.631 8.99796 143.327 8.80213 143.171 8.70422C143.024 8.6161 142.72 8.39091 142.505 8.21466C142.29 8.04822 142.035 7.90135 141.937 7.90135C141.849 7.90135 141.594 7.78385 141.389 7.63699C141.183 7.49991 140.801 7.30409 140.557 7.20618C140.302 7.10827 139.93 6.91244 139.734 6.77537C139.528 6.63829 139.274 6.53059 139.156 6.53059C139.039 6.53059 138.677 6.4033 138.334 6.23686C137.991 6.0802 137.463 5.90396 137.159 5.855C136.855 5.80605 136.405 5.68855 136.16 5.60043C135.925 5.5221 135.26 5.40461 134.692 5.34586C134.124 5.29691 133.38 5.20879 133.027 5.15983C131.696 4.95422 131.314 4.94443 130.687 5.04234C130.335 5.10108 129.669 5.199 129.209 5.25774C127.485 5.46336 126.81 5.57106 126.653 5.65918C126.565 5.69834 126.222 5.78646 125.88 5.83542C125.547 5.89417 124.979 6.07041 124.636 6.23686C124.284 6.39351 123.902 6.53059 123.784 6.53059C123.667 6.53059 123.373 6.65787 123.128 6.81453C122.884 6.9614 122.521 7.14743 122.325 7.20618C122.139 7.27472 121.865 7.41179 121.738 7.5097C121.601 7.61741 121.288 7.79365 121.033 7.90135C120.778 8.00905 120.426 8.21466 120.26 8.35174C120.093 8.48882 119.692 8.79234 119.369 9.02733C118.654 9.54626 115.677 12.4738 115.227 13.0907C115.051 13.3354 114.718 13.8054 114.473 14.1285C114.228 14.4614 114.032 14.7551 114.032 14.7845C114.032 14.8433 113.445 15.8126 113.181 16.1846C113.063 16.3511 112.926 16.6742 112.877 16.8896C112.818 17.1148 112.662 17.4967 112.525 17.7316C112.378 17.9764 112.221 18.4268 112.162 18.7401C112.103 19.0437 111.957 19.5038 111.829 19.7486C111.712 19.9934 111.565 20.4144 111.506 20.6984C111.35 21.4327 110.929 22.2454 110.635 22.402C110.263 22.5978 109.421 22.5489 108.305 22.2552C107.766 22.1181 107.041 21.9614 106.689 21.9027C106.337 21.8439 105.788 21.746 105.465 21.6873C104.76 21.56 101.088 21.5698 100.325 21.6971C98.7288 21.9614 97.3385 22.2747 96.9958 22.451C96.8587 22.5195 96.565 22.6076 96.3593 22.6468C96.1439 22.686 95.7327 22.8426 95.439 22.9895C95.1452 23.1461 94.8515 23.2734 94.7732 23.2734C94.4794 23.2734 91.9435 24.605 91.5127 24.9869C91.3756 25.1142 91.17 25.261 91.0428 25.3198C90.7784 25.4569 88.9474 27.0528 88.1544 27.8459C87.1948 28.8054 85.501 31.0084 85.3247 31.5372C85.266 31.7036 85.1093 31.9875 84.982 32.1638C84.845 32.34 84.6981 32.6533 84.6393 32.8492C84.5904 33.045 84.4337 33.3485 84.3064 33.515C84.1792 33.6912 84.0323 34.0339 83.9736 34.2787C83.9148 34.5332 83.7581 34.9543 83.6211 35.2186C83.484 35.483 83.3469 35.8942 83.3175 36.1194C83.2882 36.3544 83.1903 36.7852 83.0826 37.0789C82.9846 37.3727 82.8084 38.3028 82.6811 39.1351C82.4461 40.6919 82.407 42.0137 82.5049 44.5789C82.5832 46.6547 82.4657 46.7526 79.5186 46.968C78.7647 47.0169 77.9912 47.1344 77.6093 47.2617C77.2568 47.3694 76.8456 47.4575 76.6792 47.4575C76.5225 47.4575 76.1211 47.5848 75.798 47.7317C75.4748 47.8883 75.0147 48.045 74.7699 48.0842C74.5349 48.1233 74.0845 48.28 73.781 48.4367C73.4775 48.5933 73.0466 48.7695 72.8214 48.8283C72.606 48.887 72.3025 49.0339 72.1556 49.1612C71.999 49.2885 71.7248 49.4647 71.5388 49.5528C71.0688 49.7682 70.266 50.2676 69.9722 50.532C69.8351 50.6494 69.5414 50.8746 69.3064 51.0313C69.0812 51.1782 68.2979 51.8831 67.5832 52.5881C65.8795 54.2526 64.9592 55.3884 64.1661 56.7787C63.9409 57.1703 63.6569 57.6207 63.5394 57.7676C63.422 57.9145 63.2947 58.1788 63.2653 58.3551C63.2261 58.5313 63.0499 58.9523 62.8736 59.3048C62.6974 59.6573 62.531 60.1273 62.4918 60.3623C62.4526 60.5972 62.3156 61.0085 62.1883 61.2728C62.0512 61.5372 61.9141 61.9582 61.875 62.2226C61.8456 62.4771 61.7281 63.0157 61.6204 63.4171C61.4441 64.0535 61.4148 64.5333 61.3756 66.9517C61.3462 69.5561 61.356 69.8205 61.5518 70.7702C61.6693 71.3283 61.826 72.092 61.8945 72.4739C61.9631 72.846 62.1393 73.3845 62.2764 73.6586C62.4135 73.9426 62.531 74.2755 62.531 74.4028C62.531 74.53 62.6582 74.8336 62.8051 75.0783C62.9618 75.3133 63.1184 75.6462 63.1576 75.8029C63.1968 75.9693 63.3338 76.2533 63.4709 76.4491C63.7842 76.9093 63.9017 77.3401 63.9017 78.0255C63.9017 78.5052 63.8723 78.6031 63.6471 78.7794C63.5101 78.8871 63.3045 79.0046 63.187 79.0438C63.0695 79.0829 62.8443 79.2102 62.6778 79.3277C62.5212 79.455 62.247 79.5823 62.0708 79.6214C61.8945 79.6508 61.591 79.7977 61.3854 79.9347C61.1798 80.0718 60.8665 80.2285 60.6804 80.2774C60.4944 80.3362 60.1811 80.5026 59.9951 80.6495C59.7992 80.7964 59.4859 80.9726 59.2901 81.0314C59.0943 81.0999 58.8495 81.237 58.7516 81.3545C58.6439 81.4622 58.3306 81.7069 58.0368 81.893C56.764 82.7056 53.4644 86.3479 53.1511 87.2879C53.0923 87.4739 52.9259 87.7481 52.7986 87.9047C52.6615 88.0614 52.5146 88.3453 52.4559 88.5314C52.4069 88.7076 52.2601 89.0111 52.123 89.1874C51.9859 89.3636 51.839 89.6378 51.8097 89.8042C51.7705 89.9609 51.6138 90.3036 51.4572 90.5483C51.3005 90.7931 51.1732 91.0868 51.1732 91.1946C51.1732 91.3023 51.1047 91.5862 51.0264 91.8212C50.7033 92.7318 50.6739 93.1626 50.6837 98.391C50.6837 103.365 50.6935 103.708 50.8795 104.236C50.9872 104.55 51.1145 105.02 51.1732 105.284C51.232 105.548 51.3691 105.862 51.4768 105.979C51.5943 106.087 51.7215 106.371 51.7705 106.596C51.8195 106.821 51.9663 107.144 52.1034 107.321C52.2307 107.487 52.358 107.742 52.3971 107.888C52.4363 108.026 52.6125 108.378 52.7986 108.662C52.9846 108.946 53.1315 109.24 53.1315 109.298C53.1315 109.553 54.7078 111.511 55.8632 112.696C57.4592 114.321 57.655 114.683 57.2731 115.291C57.1752 115.437 56.6073 116.044 56.0003 116.642C55.403 117.249 54.796 117.915 54.6687 118.12C54.5316 118.336 54.3554 118.571 54.2868 118.649C54.0714 118.855 53.4742 119.736 53.2783 120.118C53.1804 120.304 52.9846 120.607 52.8377 120.793C52.6909 120.979 52.5244 121.283 52.4559 121.459C52.3971 121.645 52.2503 121.919 52.1132 122.066C51.9859 122.223 51.8488 122.546 51.8097 122.771C51.7705 123.006 51.6334 123.368 51.5061 123.593C51.3886 123.819 51.183 124.338 51.0753 124.759C50.9676 125.18 50.8306 125.601 50.7816 125.689C50.6739 125.894 50.6249 136.263 50.7326 136.704C50.7718 136.86 50.8893 137.232 50.9872 137.516C51.0851 137.8 51.1732 138.133 51.1732 138.251C51.1732 138.368 51.3103 138.662 51.467 138.897C51.6334 139.132 51.7607 139.426 51.7607 139.543C51.7607 140.013 53.0531 142.294 54.0812 143.626C54.8743 144.654 57.3612 147.151 58.027 147.582C58.2718 147.729 58.6047 147.973 58.781 148.12C58.9474 148.267 59.388 148.551 59.7601 148.757C60.1223 148.962 60.5532 149.227 60.7 149.354C60.8469 149.471 61.1406 149.618 61.3462 149.677C62.0806 149.873 63.5884 150.637 63.7646 150.891C64.029 151.302 63.9213 152.262 63.5394 152.869C63.373 153.133 63.2065 153.476 63.1772 153.623C63.138 153.779 63.0009 154.063 62.8736 154.259C62.7366 154.465 62.5995 154.778 62.5701 154.964C62.531 155.15 62.3939 155.542 62.2568 155.836C62.1197 156.129 61.9631 156.658 61.8945 157.011C61.826 157.363 61.6791 158.137 61.5616 158.734C61.356 159.723 61.3462 160.016 61.3756 162.65C61.4148 165.196 61.4344 165.558 61.6204 166.126C61.7281 166.479 61.8554 166.968 61.8847 167.233C61.9141 167.487 62.0316 167.879 62.1491 168.114C62.2666 168.339 62.4233 168.78 62.5016 169.093C62.5701 169.406 62.7659 169.915 62.9226 170.219C63.0793 170.522 63.2163 170.865 63.2163 170.973C63.2163 171.08 63.3143 171.315 63.4415 171.501C63.8234 172.089 63.9017 172.246 63.9017 172.412C63.9017 172.5 64.0192 172.716 64.1563 172.882C64.3032 173.048 64.6263 173.538 64.8906 173.969C65.4389 174.87 65.8893 175.428 66.9859 176.583C67.8182 177.464 68.3665 177.915 69.561 178.727C69.9722 179.001 70.4912 179.374 70.7163 179.53C70.9318 179.697 71.2647 179.883 71.4507 179.951C71.6367 180.01 71.9207 180.157 72.0773 180.274C72.2438 180.392 72.5277 180.548 72.7137 180.607C72.8998 180.666 73.2131 180.823 73.3991 180.95C73.5949 181.077 73.8985 181.214 74.0845 181.244C74.2705 181.283 74.7405 181.439 75.1126 181.596C75.9546 181.929 76.9337 182.184 77.903 182.291C79.0486 182.428 79.9592 182.585 80.5956 182.742C80.9187 182.83 81.3789 182.928 81.6139 182.967C81.9174 183.016 82.123 183.124 82.2895 183.31L82.5245 183.584L82.4559 186.1C82.3972 188.205 82.407 188.783 82.544 189.684C82.7692 191.172 82.9944 192.239 83.1511 192.621C83.2294 192.797 83.2882 193.062 83.2882 193.199C83.2882 193.336 83.4448 193.825 83.6309 194.285C83.8169 194.736 83.9736 195.186 83.9736 195.294C83.9736 195.539 85.1877 197.918 85.5499 198.359C85.7066 198.564 85.922 198.917 86.0199 199.161C86.1276 199.396 86.2647 199.622 86.3234 199.661C86.3822 199.7 86.578 199.954 86.764 200.238C87.1459 200.845 88.6831 202.471 89.3097 202.941C89.5643 203.127 89.9266 203.421 90.1224 203.587C90.7196 204.077 92.717 205.359 93.001 205.428C93.1381 205.457 93.3828 205.594 93.5395 205.721C93.6961 205.849 93.9997 206.005 94.2347 206.064C94.4599 206.133 94.92 206.309 95.2529 206.466C95.5956 206.632 95.9775 206.759 96.1146 206.759C96.2516 206.759 96.6727 206.896 97.0447 207.053C97.4266 207.22 97.9063 207.376 98.1217 207.406C98.3371 207.445 98.7484 207.523 99.0323 207.601C100.07 207.866 102.626 207.973 104.555 207.846C106.317 207.729 106.855 207.641 108.402 207.229C109.323 206.975 110.39 206.955 110.723 207.171C111.017 207.366 111.359 208.071 111.487 208.727C111.545 209.021 111.692 209.481 111.829 209.755C111.966 210.03 112.113 210.451 112.162 210.686C112.201 210.921 112.378 211.41 112.554 211.763C112.72 212.115 112.857 212.497 112.857 212.595C112.857 212.703 113.014 213.026 113.2 213.319C113.386 213.613 113.543 213.926 113.543 214.024C113.543 214.112 113.67 214.338 113.817 214.514C113.964 214.69 114.287 215.17 114.522 215.571C114.767 215.973 115.129 216.492 115.335 216.727C115.53 216.962 115.697 217.187 115.697 217.226C115.697 217.402 118.145 219.772 118.654 220.105C118.957 220.291 119.231 220.496 119.261 220.555C119.3 220.614 119.535 220.751 119.79 220.859C120.044 220.976 120.338 221.143 120.446 221.25C120.749 221.534 123.089 222.729 123.628 222.866C123.892 222.934 124.244 223.091 124.401 223.199C124.705 223.414 125.674 223.698 126.957 223.933C127.358 224.002 128.2 224.158 128.817 224.276C129.806 224.471 130.178 224.491 131.803 224.452C132.978 224.423 133.938 224.344 134.398 224.246C134.799 224.158 135.485 224.021 135.916 223.943C137.159 223.727 138.295 223.404 138.941 223.101C139.264 222.944 139.626 222.817 139.744 222.817C139.861 222.817 140.126 222.699 140.331 222.562C140.537 222.415 140.84 222.259 141.007 222.2C141.164 222.151 141.526 221.965 141.79 221.789C142.064 221.612 142.593 221.27 142.985 221.025C143.367 220.77 143.719 220.526 143.748 220.457C143.886 220.242 145.207 219.674 145.452 219.733C145.922 219.85 146.578 220.545 147.019 221.417C147.077 221.534 147.293 221.828 147.498 222.063C147.694 222.308 147.968 222.65 148.105 222.827C148.487 223.355 150.26 225.098 150.886 225.568C151.963 226.381 153.863 227.614 154.029 227.614C154.098 227.614 154.303 227.722 154.489 227.849C154.685 227.977 155.008 228.133 155.214 228.202C155.429 228.27 155.752 228.437 155.958 228.564C156.154 228.691 156.545 228.858 156.839 228.936C157.123 229.005 157.76 229.171 158.239 229.308C160.795 230.023 161.549 230.101 164.701 230.033C165.994 230.003 167.228 229.935 167.443 229.876C167.658 229.827 168.119 229.72 168.471 229.641C168.824 229.553 169.46 229.396 169.891 229.279C170.322 229.161 170.899 229.005 171.183 228.936C171.467 228.868 171.82 228.721 171.976 228.603C172.133 228.496 172.505 228.319 172.799 228.202C173.102 228.094 173.396 227.938 173.455 227.869C173.513 227.8 173.778 227.663 174.032 227.565C174.287 227.468 174.6 227.291 174.737 227.174C174.874 227.047 175.158 226.861 175.374 226.753C175.589 226.635 175.991 226.371 176.255 226.156C176.529 225.94 176.97 225.607 177.234 225.431C177.773 225.069 178.889 223.933 179.515 223.101C179.741 222.807 180.171 222.259 180.465 221.887C180.769 221.505 181.18 220.976 181.395 220.692C181.856 220.085 182.286 219.772 182.639 219.762C183.011 219.762 183.833 220.124 184.186 220.457C184.352 220.614 184.832 220.947 185.263 221.201C185.694 221.456 186.173 221.769 186.32 221.896C186.477 222.024 186.673 222.131 186.771 222.131C186.859 222.131 187.241 222.278 187.623 222.464C188.004 222.641 188.465 222.827 188.651 222.866C188.837 222.905 189.189 223.062 189.434 223.218C189.679 223.375 189.972 223.502 190.09 223.502C190.198 223.502 190.413 223.551 190.57 223.61C190.717 223.669 191.284 223.796 191.823 223.904C192.361 224.002 193.174 224.168 193.634 224.256C194.799 224.501 198.148 224.501 199.264 224.266C199.695 224.178 200.508 224.011 201.076 223.904C202.466 223.629 203.396 223.365 203.611 223.169C203.719 223.071 204.013 222.944 204.267 222.876C204.972 222.68 206.206 222.073 207.136 221.456C207.587 221.152 208.076 220.829 208.233 220.741C208.497 220.584 208.781 220.379 209.907 219.527C210.201 219.302 210.651 218.91 210.906 218.646C211.327 218.225 211.581 217.921 212.463 216.766C212.609 216.57 212.913 216.178 213.128 215.914C213.677 215.219 214.352 214.181 214.44 213.897C214.48 213.77 214.617 213.505 214.744 213.319C214.871 213.133 215.057 212.712 215.165 212.389C215.263 212.066 215.439 211.577 215.547 211.312C215.762 210.783 216.017 209.951 216.369 208.62C216.546 207.915 216.643 207.719 216.996 207.376C217.378 206.975 217.427 206.955 217.985 206.955C218.298 206.955 218.797 207.024 219.091 207.102C219.385 207.19 219.826 207.298 220.07 207.357C220.315 207.415 220.775 207.523 221.098 207.592C222.146 207.846 225.015 207.964 226.826 207.836C227.717 207.778 228.667 207.67 228.931 207.592C229.205 207.523 229.617 207.435 229.852 207.396C230.087 207.357 230.498 207.229 230.782 207.102C231.056 206.985 231.438 206.847 231.624 206.818C231.81 206.779 232.329 206.593 232.769 206.407C233.21 206.221 233.631 206.074 233.7 206.074C233.778 206.074 234.072 205.917 234.365 205.731C234.659 205.545 234.972 205.389 235.051 205.389C235.207 205.389 236.98 204.253 237.675 203.704C238.713 202.902 239.702 201.991 240.152 201.443C240.416 201.11 240.779 200.659 240.955 200.444C241.131 200.238 241.454 199.768 241.67 199.416C241.895 199.063 242.169 198.662 242.286 198.525C242.394 198.378 242.58 198.045 242.698 197.791C242.805 197.526 242.962 197.242 243.031 197.164C243.099 197.086 243.256 196.772 243.373 196.459C243.481 196.156 243.638 195.862 243.716 195.793C243.784 195.735 243.882 195.539 243.912 195.372C243.951 195.196 244.127 194.697 244.313 194.246C244.499 193.806 244.646 193.355 244.646 193.248C244.646 193.14 244.734 192.729 244.832 192.337C244.94 191.955 245.067 191.348 245.126 190.996C245.185 190.643 245.302 189.919 245.39 189.38C245.557 188.293 245.537 186.59 245.331 184.866C245.185 183.642 245.263 183.417 245.939 183.084C246.418 182.84 247.946 182.546 249.591 182.37C250.129 182.321 250.766 182.213 251.01 182.135C251.255 182.056 251.627 181.968 251.843 181.929C252.058 181.9 252.469 181.763 252.753 181.635C253.037 181.508 253.468 181.351 253.713 181.302C253.957 181.244 254.32 181.097 254.516 180.96C254.711 180.832 255.034 180.666 255.221 180.607C255.407 180.539 255.7 180.392 255.857 180.274C256.023 180.157 256.298 180.01 256.484 179.941C256.67 179.883 257.003 179.697 257.218 179.53C257.443 179.364 257.962 179.001 258.373 178.727C259.568 177.924 260.106 177.474 260.997 176.534C262.104 175.369 262.437 174.948 263.053 173.959C263.337 173.499 263.651 173.039 263.749 172.931C263.847 172.823 263.993 172.549 264.062 172.343C264.14 172.128 264.316 171.785 264.454 171.58C264.591 171.374 264.738 171.071 264.767 170.894C264.806 170.718 264.933 170.405 265.041 170.189C265.149 169.974 265.345 169.465 265.462 169.063C265.58 168.662 265.775 168.065 265.883 167.742C266.236 166.684 266.392 165.783 266.49 164.256C266.598 162.709 266.529 159.801 266.373 158.93C266.187 157.862 265.912 156.756 265.726 156.286C265.619 156.012 265.433 155.513 265.315 155.16C264.826 153.731 264.6 153.153 264.473 153.006C264.042 152.536 263.886 151.302 264.189 150.862C264.356 150.637 265.912 149.853 266.568 149.677C266.774 149.628 267.087 149.471 267.273 149.334C267.459 149.197 267.939 148.874 268.36 148.62C269.682 147.807 270.328 147.308 271.366 146.309C273.031 144.693 274.803 142.588 274.803 142.216C274.803 142.138 274.959 141.844 275.145 141.55C275.332 141.257 275.488 140.973 275.488 140.914C275.488 140.855 275.645 140.571 275.831 140.278C276.017 139.984 276.174 139.651 276.174 139.533C276.174 139.416 276.291 139.152 276.428 138.946C276.888 138.28 277.681 135.029 277.848 133.179C277.975 131.749 277.887 129.145 277.681 128.137C277.28 126.208 276.722 124.142 276.477 123.642C276.369 123.447 276.242 123.094 276.174 122.849C276.105 122.605 275.929 122.232 275.772 122.027C275.615 121.811 275.488 121.567 275.488 121.479C275.488 121.341 274.313 119.52 273.432 118.287C273.275 118.061 272.649 117.376 272.051 116.769C270.847 115.535 270.593 115.193 270.593 114.801C270.593 114.292 270.808 113.998 272.198 112.578C272.972 111.785 273.755 110.894 273.951 110.601C274.137 110.307 274.362 110.003 274.441 109.935C274.529 109.866 274.676 109.602 274.764 109.357C274.862 109.103 275.008 108.809 275.106 108.701C275.194 108.593 275.39 108.241 275.537 107.918C275.674 107.604 275.85 107.272 275.919 107.183C275.997 107.105 276.105 106.851 276.164 106.635C276.223 106.41 276.36 106.116 276.467 105.979C276.683 105.705 277.104 104.364 277.202 103.61C277.241 103.336 277.329 102.875 277.397 102.582C277.838 100.77 277.867 100.516 277.877 98.2344C277.887 95.8062 277.897 95.8845 277.231 93.2801C277.065 92.6632 276.888 91.9289 276.82 91.6645C276.751 91.3904 276.604 90.9987 276.497 90.7833C276.389 90.5679 276.223 90.1371 276.134 89.8336C276.046 89.5301 275.929 89.2461 275.87 89.2069C275.811 89.1678 275.674 88.9426 275.567 88.688C275.459 88.4432 275.224 88.0124 275.048 87.7481C274.519 86.9354 273.833 85.9171 273.442 85.3492C272.942 84.6345 270.602 82.3532 269.839 81.844C269.506 81.6188 269.202 81.3838 269.163 81.3251C269.134 81.2663 268.83 81.0999 268.497 80.953C268.174 80.7964 267.841 80.6103 267.773 80.5222C267.704 80.4341 267.499 80.3362 267.332 80.3068C267.156 80.2676 266.872 80.1208 266.686 79.9935C266.51 79.8564 266.157 79.6802 265.912 79.6116C265.668 79.5333 265.394 79.406 265.305 79.3277C265.227 79.2494 264.943 79.0927 264.689 78.985C264.13 78.7402 264.033 78.564 264.033 77.8884C264.042 77.2813 264.189 76.831 264.551 76.3022C264.698 76.0966 264.816 75.842 264.816 75.7539C264.816 75.6658 264.924 75.4308 265.041 75.2448C265.266 74.9315 265.54 74.1384 265.863 72.9145C265.991 72.4249 266.098 71.955 266.402 70.4667C266.471 70.1338 266.519 68.8805 266.519 67.2356C266.519 64.8368 266.5 64.4549 266.314 63.7598C266.206 63.329 266.059 62.7121 265.991 62.389C265.932 62.0659 265.766 61.4589 265.638 61.0378C265.511 60.6168 265.403 60.2154 265.403 60.1566C265.403 60.0881 265.266 59.8433 265.11 59.6083C264.943 59.3733 264.816 59.109 264.816 59.0307C264.816 58.7761 263.925 56.9549 263.474 56.2696C262.407 54.6638 261.761 53.8707 260.615 52.7448C259.656 51.8048 258.128 50.483 257.786 50.3068C257.639 50.2284 257.326 50.0228 257.091 49.8368C256.856 49.6605 256.591 49.5137 256.503 49.5137C256.415 49.5137 256.102 49.357 255.808 49.171C255.514 48.985 255.191 48.8283 255.093 48.8283C254.995 48.8283 254.623 48.6814 254.261 48.4954C253.899 48.3094 253.429 48.1233 253.213 48.094C252.998 48.0548 252.548 47.8981 252.215 47.7415C251.882 47.5848 251.49 47.4575 251.333 47.4575C251.187 47.4575 250.746 47.3694 250.374 47.2519C249.894 47.1148 249.209 47.0267 248.122 46.968C245.606 46.8407 245.302 46.6645 245.322 45.3329C245.322 44.9118 245.371 44.4125 245.429 44.2265C245.557 43.7957 245.566 40.7604 245.439 40.1925C245.39 39.9673 245.273 39.3309 245.185 38.7924C245.096 38.2539 244.959 37.5293 244.871 37.1768C244.793 36.8244 244.685 36.3544 244.636 36.1292C244.597 35.8942 244.44 35.4634 244.303 35.1697C244.166 34.8661 244.019 34.4549 243.971 34.2395C243.922 34.0339 243.794 33.7304 243.677 33.5639C243.559 33.4073 243.403 33.0939 243.324 32.8785C243.246 32.6533 243.08 32.3302 242.942 32.154C242.815 31.9875 242.668 31.7134 242.629 31.5665C242.6 31.4099 242.424 31.0965 242.247 30.8616C242.071 30.6364 241.875 30.3524 241.816 30.2447C241.719 30.0587 241.102 29.2754 240.162 28.1494C239.907 27.8361 239.437 27.3661 239.114 27.1018C237.078 25.4177 237.293 25.5743 235.834 24.6148C235.442 24.3505 235.051 24.1155 234.963 24.0763C234.875 24.0469 234.6 23.8805 234.346 23.7042C234.091 23.5378 233.719 23.3616 233.514 23.3224C233.308 23.2832 232.907 23.1266 232.603 22.9699C232.309 22.8132 231.976 22.686 231.859 22.686C231.751 22.686 231.183 22.5293 230.606 22.3433C230.018 22.1572 229.431 22.0006 229.284 22.0006C229.137 22.0006 228.755 21.932 228.442 21.8439C227.208 21.5306 222.998 21.4914 221.882 21.795C221.666 21.8537 221.206 21.9418 220.854 21.9908C220.501 22.0495 219.796 22.2062 219.287 22.3433C217.995 22.6762 217.525 22.6664 217.094 22.2943C216.702 21.9516 216.594 21.6873 216.066 19.7682C215.85 19.0045 215.586 18.2506 215.478 18.1037C215.38 17.9568 215.243 17.6435 215.175 17.4085C214.91 16.4098 213.745 14.3929 212.463 12.6794C211.591 11.5339 211.317 11.2205 210.661 10.6429C209.819 9.89874 208.556 8.91963 208.076 8.62589C207.89 8.51819 207.636 8.33216 207.508 8.20487C207.371 8.08738 207.117 7.9503 206.921 7.89156C206.725 7.8426 206.441 7.69573 206.294 7.56845C206.147 7.44117 205.844 7.28451 205.638 7.21597C205.423 7.14743 205.051 6.9614 204.806 6.81453C204.561 6.65787 204.267 6.53059 204.15 6.53059C204.032 6.53059 203.651 6.39351 203.298 6.23686C202.955 6.07041 202.427 5.89417 202.143 5.855C201.849 5.80605 201.487 5.70813 201.32 5.64939C201.164 5.59064 200.517 5.47315 199.901 5.39482C199.284 5.31649 198.491 5.20879 198.138 5.15983C196.924 4.9738 195.955 4.93463 195.113 5.05213C193.213 5.31649 191.715 5.57106 191.559 5.65918C191.461 5.70813 191.147 5.79625 190.844 5.855C190.55 5.90396 190.031 6.0802 189.679 6.23686C189.326 6.4033 188.935 6.53059 188.807 6.53059C188.69 6.53059 188.347 6.68725 188.053 6.87328C187.76 7.05931 187.456 7.21597 187.368 7.21597C187.29 7.21597 187.055 7.32367 186.859 7.46075C186.663 7.58803 186.262 7.81323 185.958 7.94051C185.655 8.07759 185.41 8.22446 185.41 8.27341C185.41 8.31258 185.224 8.45944 184.998 8.58673C184.764 8.71401 184.323 9.02733 184.01 9.29169C183.403 9.79104 182.874 9.99665 182.394 9.89874C182.061 9.8302 181.914 9.69313 181.513 9.09587C180.573 7.69573 180.093 7.02015 179.79 6.67746C179.594 6.46205 179.437 6.26623 179.437 6.22706C179.437 6.10957 178.478 5.15983 177.92 4.71923C177.596 4.45487 177.312 4.21988 177.283 4.18072C177.224 4.10239 175.266 2.6533 174.816 2.34977C174.639 2.23228 174.248 2.01688 173.954 1.8798C173.66 1.74272 173.347 1.55669 173.259 1.47836C173.171 1.40003 172.867 1.27275 172.593 1.19442C172.319 1.12588 171.927 0.969224 171.732 0.851731C171.545 0.744028 171.105 0.58737 170.772 0.509041C170.439 0.430712 169.998 0.283845 169.783 0.195725C169.44 0.0390665 168.941 0.0194842 164.31 -9.8072e-05C161.51 -9.8072e-05 159.023 0.0194842 158.778 0.0684399ZM101.793 53.7826C102.087 53.8609 102.391 53.9197 102.479 53.9197C102.557 53.9197 102.821 54.0568 103.056 54.2134C103.291 54.3799 103.566 54.5072 103.673 54.5072C103.771 54.5072 104.085 54.654 104.368 54.8401C104.643 55.0163 105.142 55.3394 105.475 55.545C106.454 56.1716 107.541 57.0333 107.835 57.4053C107.991 57.6012 108.265 57.9438 108.461 58.1788C109.039 58.8642 109.998 60.9301 110.175 61.8701C110.596 64.1808 110.625 64.5627 110.459 65.767C110.37 66.3838 110.282 66.9223 110.253 66.9517C110.233 66.9909 110.175 67.3238 110.126 67.686C110.008 68.4791 109.107 70.3688 108.422 71.25C107.609 72.3074 106.562 73.2278 105.367 73.9524C104.936 74.2167 104.447 74.53 104.29 74.6475C104.124 74.765 103.81 74.8923 103.605 74.9315C103.389 74.9608 102.998 75.1077 102.724 75.2448C101.412 75.9106 97.8574 75.9302 96.4572 75.2742C96.1341 75.1175 95.7033 74.9706 95.5075 74.9413C95.3019 74.9119 94.9984 74.7748 94.8221 74.6475C94.6459 74.5105 94.3326 74.3538 94.1368 74.2853C93.5297 74.0992 92.4037 73.1495 91.6204 72.19C90.8959 71.2892 89.7503 69.7618 89.7503 69.6834C89.7503 69.6443 89.6132 69.4093 89.4468 69.1645C89.2803 68.9099 89.0845 68.4497 89.0062 68.1462C88.9279 67.8329 88.8104 67.4021 88.7516 67.1867C88.6831 66.9419 88.6341 65.9432 88.6341 64.592C88.6439 62.5848 88.6635 62.3303 88.8495 61.7624C88.967 61.4197 89.0649 61.0672 89.0649 60.9693C89.0649 60.8812 89.1922 60.6168 89.3391 60.372C89.4958 60.1371 89.7993 59.6279 90.0245 59.2461C90.2497 58.874 90.514 58.4726 90.6119 58.3649C90.7099 58.267 90.984 57.9145 91.2386 57.5914C91.7673 56.906 92.3646 56.3283 92.9814 55.9073C93.2262 55.7408 93.5003 55.5156 93.608 55.4079C93.7059 55.2904 93.9213 55.173 94.0976 55.1338C94.264 55.0946 94.5871 54.938 94.8123 54.7911C95.0375 54.6344 95.2823 54.5072 95.3606 54.5072C95.439 54.5072 95.7523 54.3799 96.046 54.2232C96.3398 54.0666 96.8195 53.8805 97.1133 53.812C98.2197 53.5476 100.785 53.528 101.793 53.7826ZM227.756 53.7239C227.972 53.7728 228.314 53.8414 228.52 53.8707C228.716 53.9001 229.186 54.0568 229.558 54.2134C229.94 54.3799 230.302 54.5072 230.38 54.5072C230.508 54.5072 230.772 54.6638 231.967 55.4569C232.769 55.9856 235.442 58.6684 235.442 58.9523C235.442 58.9915 235.619 59.295 235.834 59.6181C236.049 59.951 236.226 60.3133 236.226 60.421C236.226 60.5385 236.363 60.9106 236.519 61.2532C236.686 61.5959 236.872 62.1932 236.94 62.5751C237.087 63.4367 237.087 65.2676 236.94 66.3055C236.735 67.7546 235.961 69.7128 235.296 70.4667C235.168 70.6038 234.963 70.8877 234.826 71.1031C234.385 71.8179 232.29 73.8349 231.673 74.158C231.516 74.2461 231.222 74.4321 231.036 74.579C230.85 74.7259 230.517 74.8727 230.312 74.9119C230.096 74.9511 229.705 75.0979 229.431 75.235C228.089 75.9106 224.653 75.94 223.135 75.284C222.763 75.1273 222.313 74.9608 222.117 74.9315C221.911 74.8923 221.705 74.8042 221.637 74.7259C221.578 74.6475 221.275 74.4909 220.971 74.3832C220.658 74.2657 220.305 74.0699 220.168 73.9524C220.031 73.8251 219.767 73.6293 219.581 73.502C219.013 73.1201 218.67 72.797 217.75 71.7787C216.849 70.78 215.86 69.4288 215.86 69.1841C215.85 69.1057 215.792 68.8708 215.713 68.6553C215.449 67.9504 214.881 65.2676 214.881 64.7487C214.881 64.3081 215.008 63.6129 215.331 62.1932C215.713 60.5483 215.87 60.0587 216.144 59.6475C216.291 59.4321 216.565 59.0209 216.761 58.7369C217.192 58.0907 219.121 56.1129 219.532 55.9073C219.688 55.8192 219.982 55.6331 220.168 55.4863C220.991 54.8596 222.861 54.0078 223.84 53.812C225.113 53.5574 226.836 53.5183 227.756 53.7239ZM168.657 56.5045C169.44 56.6416 170.723 56.7983 171.506 56.857C172.29 56.9256 173.21 57.0333 173.562 57.1116C174.453 57.3074 176.431 57.7872 177.822 58.1397C178.468 58.3061 179.241 58.5019 179.535 58.5705C179.829 58.639 180.338 58.8055 180.661 58.9523C180.984 59.0894 181.356 59.2069 181.493 59.2069C181.63 59.2069 181.983 59.3244 182.277 59.4615C182.57 59.5985 183.128 59.7944 183.53 59.9021C183.931 60.0098 184.421 60.1762 184.617 60.2741C184.812 60.3818 185.145 60.4895 185.341 60.5287C185.547 60.5679 185.87 60.7147 186.076 60.842C186.271 60.9791 186.634 61.1553 186.888 61.2239C187.143 61.3022 187.397 61.4295 187.466 61.498C187.525 61.5764 187.809 61.7232 188.083 61.8113C188.367 61.8995 188.729 62.0757 188.886 62.203C189.052 62.3205 189.346 62.4673 189.542 62.5163C189.737 62.5751 190.051 62.7219 190.227 62.859C190.403 62.9863 190.717 63.1527 190.912 63.2115C191.108 63.28 191.382 63.4171 191.519 63.5248C191.647 63.6325 191.94 63.7794 192.166 63.8577C192.381 63.936 192.704 64.1025 192.88 64.2298C193.047 64.357 193.331 64.5137 193.487 64.5627C193.654 64.6214 194.124 64.8858 194.515 65.1501C194.917 65.4145 195.455 65.767 195.7 65.9236C196.474 66.4132 196.993 66.7754 197.649 67.2944C198.001 67.5685 198.393 67.8525 198.53 67.921C198.775 68.0483 199.01 68.2245 200.126 69.1547C200.459 69.4191 200.919 69.7715 201.134 69.938C201.359 70.0947 201.761 70.3786 202.015 70.5646C202.662 71.0248 208.85 77.1639 209.232 77.7122C209.398 77.9569 209.653 78.3094 209.809 78.4954C210.779 79.6704 211.16 80.1599 211.395 80.5026C211.532 80.718 211.807 81.0901 211.993 81.3349C212.179 81.5797 212.551 82.079 212.825 82.4609C213.099 82.8329 213.471 83.3421 213.647 83.5868C213.833 83.8316 214.186 84.3701 214.44 84.8009C214.695 85.222 215.028 85.7507 215.185 85.9661C215.341 86.1815 215.469 86.4361 215.469 86.5242C215.469 86.6221 215.596 86.8571 215.762 87.0529C215.919 87.2585 216.232 87.7579 216.457 88.1691C216.683 88.5803 216.957 89.0503 217.084 89.2167C217.202 89.3734 217.358 89.6867 217.427 89.9021C217.495 90.1175 217.652 90.4211 217.769 90.5875C217.887 90.7442 218.034 91.0771 218.102 91.3218C218.181 91.5666 218.357 92.0072 218.504 92.3009C218.651 92.5947 218.807 92.9961 218.846 93.1822C218.886 93.3682 219.023 93.6619 219.15 93.8382C219.277 94.0144 219.414 94.2983 219.444 94.4746C219.483 94.6508 219.63 94.9935 219.777 95.2383C219.933 95.4831 220.09 95.8551 220.129 96.0705C220.168 96.2859 220.325 96.7265 220.472 97.0594C220.628 97.3923 220.756 97.7448 220.756 97.8427C220.756 97.9406 220.932 98.5771 221.147 99.2429C221.363 99.9087 221.539 100.565 221.539 100.692C221.539 100.819 221.676 101.24 221.833 101.622C221.999 101.994 222.126 102.415 222.126 102.533C222.126 102.738 222.244 103.277 222.665 105.078C222.734 105.401 222.89 106.214 222.998 106.89C223.106 107.565 223.252 108.398 223.311 108.75C223.527 109.994 223.595 110.679 223.693 112.764C223.752 113.92 223.83 115.398 223.879 116.044C223.938 116.749 223.938 117.797 223.879 118.688C223.83 119.491 223.742 121.038 223.693 122.115C223.644 123.192 223.556 124.377 223.507 124.759C223.35 125.875 223.115 127.353 222.969 128.088C222.89 128.46 222.724 129.302 222.606 129.948C222.489 130.594 222.332 131.289 222.254 131.505C222.185 131.71 222.126 132.004 222.126 132.151C222.126 132.298 222.058 132.611 221.97 132.846C221.735 133.492 221.451 134.618 221.441 134.873C221.441 135 221.314 135.372 221.167 135.705C221.01 136.038 220.854 136.498 220.824 136.723C220.785 136.949 220.628 137.409 220.472 137.751C220.315 138.094 220.158 138.525 220.119 138.711C220.08 138.897 219.943 139.22 219.816 139.416C219.688 139.612 219.542 139.984 219.483 140.229C219.424 140.483 219.248 140.943 219.091 141.257C218.925 141.58 218.797 141.903 218.797 141.981C218.797 142.06 218.641 142.412 218.455 142.764C218.269 143.127 218.112 143.469 218.112 143.548C218.112 143.616 217.995 143.851 217.848 144.057C217.711 144.263 217.515 144.654 217.417 144.919C217.319 145.183 217.153 145.496 217.055 145.604C216.947 145.721 216.683 146.162 216.448 146.593C216.213 147.024 215.919 147.503 215.801 147.65C215.674 147.797 215.527 148.091 215.469 148.296C215.42 148.502 215.302 148.727 215.214 148.796C215.087 148.913 214.734 149.462 214.166 150.46C214.059 150.646 213.863 150.93 213.735 151.097C213.598 151.253 213.285 151.704 213.04 152.086C212.433 152.996 212.218 153.29 210.622 155.356C210.436 155.601 210.172 155.963 210.034 156.169C209.682 156.697 206.921 159.586 204.767 161.691C202.995 163.414 201.957 164.334 201.164 164.863C200.958 165 200.42 165.431 199.979 165.813C199.108 166.557 198.598 166.929 197.463 167.663C197.071 167.918 196.562 168.27 196.337 168.447C196.121 168.623 195.622 168.936 195.24 169.152C194.858 169.367 194.378 169.68 194.173 169.847C193.967 170.003 193.644 170.18 193.438 170.238C193.243 170.287 192.998 170.424 192.89 170.542C192.792 170.659 192.508 170.855 192.264 170.983C192.019 171.11 191.666 171.296 191.48 171.394C191.294 171.492 190.922 171.707 190.658 171.883C190.384 172.06 190.1 172.197 190.012 172.197C189.933 172.197 189.698 172.314 189.493 172.451C189.287 172.588 188.895 172.765 188.611 172.853C188.327 172.931 187.926 173.097 187.711 173.225C187.495 173.352 187.123 173.499 186.878 173.567C186.634 173.636 186.311 173.773 186.164 173.881C186.007 173.988 185.655 174.145 185.361 174.214C185.067 174.292 184.558 174.488 184.215 174.644C183.873 174.811 183.5 174.938 183.373 174.938C183.256 174.938 182.991 175.046 182.786 175.183C182.59 175.31 182.228 175.467 181.983 175.516C181.738 175.575 181.19 175.731 180.759 175.868C180.328 176.015 179.692 176.182 179.339 176.25C178.987 176.328 178.331 176.495 177.871 176.642C177.41 176.779 176.921 176.896 176.784 176.896C176.647 176.896 176.079 177.033 175.511 177.2C174.953 177.366 174.248 177.543 173.954 177.582C173.66 177.631 172.73 177.758 171.898 177.866C171.066 177.983 170.136 178.11 169.842 178.159C167.962 178.483 167.453 178.512 162.596 178.502C159.16 178.502 157.446 178.463 156.966 178.385C156.594 178.316 156.154 178.248 155.987 178.228C155.263 178.14 153.481 177.846 152.854 177.719C152.482 177.64 152.061 177.582 151.924 177.582C151.679 177.582 150.974 177.435 149.564 177.082C149.153 176.984 148.703 176.896 148.556 176.896C148.419 176.896 148.047 176.818 147.743 176.71C146.607 176.338 146.118 176.211 145.883 176.211C145.746 176.211 145.325 176.074 144.943 175.907C144.561 175.741 144.072 175.575 143.856 175.545C143.631 175.526 143.21 175.379 142.916 175.232C142.622 175.085 142.192 174.928 141.966 174.889C141.731 174.85 141.389 174.713 141.183 174.576C140.987 174.439 140.664 174.312 140.478 174.282C140.282 174.253 139.842 174.086 139.489 173.91C139.137 173.734 138.686 173.567 138.491 173.528C138.285 173.489 138.001 173.362 137.854 173.234C137.698 173.107 137.404 172.951 137.188 172.892C136.973 172.833 136.601 172.647 136.366 172.49C136.131 172.324 135.857 172.197 135.769 172.197C135.671 172.197 135.436 172.079 135.23 171.942C135.025 171.805 134.623 171.609 134.339 171.501C134.065 171.394 133.781 171.247 133.713 171.169C133.654 171.09 133.438 170.983 133.243 170.914C133.047 170.855 132.684 170.659 132.44 170.483C132.195 170.307 131.696 170.003 131.314 169.798C130.942 169.592 130.521 169.328 130.384 169.201C130.246 169.083 129.776 168.76 129.336 168.496C128.885 168.231 128.376 167.889 128.21 167.751C128.034 167.605 127.495 167.203 127.006 166.86C126.526 166.518 125.929 166.077 125.684 165.881C125.439 165.695 124.979 165.333 124.656 165.078C124.333 164.834 123.872 164.442 123.628 164.217C123.383 163.992 123.03 163.698 122.844 163.58C122.658 163.453 122.472 163.296 122.433 163.228C122.384 163.159 122.12 162.954 121.846 162.768C121.297 162.396 118.409 159.498 117.626 158.528C117.371 158.215 116.686 157.392 116.098 156.717C114.933 155.366 114.267 154.543 113.856 153.936C113.709 153.721 113.347 153.231 113.053 152.84C112.27 151.821 112.025 151.479 111.408 150.49C111.105 150 110.645 149.285 110.39 148.904C110.126 148.522 109.92 148.179 109.92 148.14C109.92 148.11 109.803 147.934 109.665 147.748C109.528 147.572 109.303 147.17 109.176 146.857C109.039 146.554 108.863 146.231 108.784 146.152C108.716 146.064 108.588 145.81 108.5 145.575C108.422 145.349 108.265 145.036 108.158 144.879C108.05 144.723 107.893 144.419 107.815 144.194C107.737 143.969 107.59 143.675 107.492 143.528C107.384 143.381 107.257 143.107 107.188 142.921C107.13 142.735 106.983 142.422 106.865 142.236C106.669 141.922 106.395 141.217 105.945 139.935C105.769 139.416 105.592 139.014 105.377 138.613C105.113 138.153 104.045 134.706 103.84 133.668C103.791 133.394 103.615 132.826 103.468 132.396C103.184 131.612 102.929 130.535 102.821 129.703C102.792 129.458 102.704 129.018 102.626 128.724C102.332 127.529 102.263 127.02 102.077 124.856C101.97 123.613 101.842 122.36 101.793 122.066C101.49 120.392 101.49 114.566 101.784 112.715C101.842 112.392 101.95 111.374 102.028 110.464C102.165 108.946 102.322 107.879 102.577 106.694C102.635 106.449 102.714 105.989 102.763 105.666C102.812 105.343 102.919 104.765 103.017 104.393C103.105 104.011 103.262 103.375 103.36 102.973C103.752 101.368 104.045 100.32 104.192 100.036C104.28 99.8793 104.388 99.517 104.437 99.2527C104.486 98.9785 104.662 98.4498 104.829 98.0777C104.985 97.7154 105.122 97.314 105.122 97.2063C105.122 97.0986 105.279 96.6286 105.465 96.1782C105.651 95.7181 105.808 95.2677 105.808 95.1698C105.808 95.0718 105.935 94.7194 106.102 94.3767C106.258 94.0438 106.434 93.5836 106.493 93.3486C106.562 93.1234 106.709 92.7807 106.836 92.5947C106.963 92.4087 107.1 92.1149 107.139 91.9583C107.179 91.7918 107.325 91.4883 107.472 91.2729C107.619 91.0575 107.795 90.7148 107.864 90.4994C107.932 90.2938 108.089 89.9609 108.216 89.7748C108.353 89.579 108.481 89.3147 108.52 89.1776C108.549 89.0405 108.677 88.7859 108.794 88.6293C108.912 88.4628 109.107 88.1593 109.225 87.9439C109.812 86.8767 109.949 86.6515 110.116 86.4752C110.214 86.3675 110.41 86.0346 110.547 85.7409C110.684 85.4472 111.095 84.752 111.457 84.2135C111.829 83.6652 112.25 83.0287 112.407 82.7938C112.564 82.5588 112.877 82.1377 113.102 81.8734C113.327 81.5992 113.631 81.1978 113.768 80.9726C113.905 80.7474 114.072 80.5418 114.12 80.5026C114.179 80.4733 114.385 80.2089 114.571 79.9152C115.1 79.1221 117.753 76.2729 120.26 73.7957C123.667 70.4276 124.479 69.7324 127.348 67.6762C127.573 67.5098 127.946 67.2454 128.161 67.0692C128.386 66.9027 128.983 66.5111 129.483 66.2076C129.982 65.8942 130.413 65.6005 130.442 65.5516C130.481 65.4928 130.756 65.3459 131.059 65.2089C131.363 65.0718 131.696 64.8858 131.803 64.7976C131.911 64.6997 132.312 64.4549 132.684 64.2493C133.066 64.0437 133.507 63.7794 133.683 63.6521C133.85 63.5248 134.231 63.329 134.525 63.2213C134.819 63.1136 135.132 62.9373 135.23 62.8296C135.318 62.7317 135.534 62.6142 135.71 62.5848C135.876 62.5457 136.209 62.389 136.454 62.2422C136.699 62.0953 137.002 61.9386 137.139 61.8995C137.276 61.8603 137.58 61.7036 137.825 61.5568C138.07 61.4099 138.422 61.2532 138.608 61.2141C138.794 61.1749 139.196 61.0183 139.499 60.8714C139.793 60.7147 140.214 60.5581 140.419 60.5189C140.635 60.4797 140.997 60.3231 141.242 60.1762C141.487 60.0196 141.761 59.8923 141.869 59.8923C141.966 59.8923 142.417 59.7356 142.877 59.5496C143.327 59.3636 143.788 59.2069 143.905 59.2069C144.013 59.2069 144.424 59.0796 144.806 58.923C145.198 58.7663 145.667 58.6096 145.854 58.5705C146.04 58.5313 146.421 58.4432 146.686 58.3747C146.96 58.2963 147.547 58.1397 148.008 58.032C148.468 57.9145 149.006 57.7774 149.212 57.7284C149.418 57.6697 149.946 57.562 150.387 57.4935C150.827 57.4151 151.611 57.2585 152.12 57.1508C152.629 57.0431 153.686 56.8864 154.47 56.8081C155.253 56.7297 156.262 56.5927 156.722 56.5045C157.955 56.2696 160.09 56.1912 163.859 56.2304C166.826 56.2696 167.404 56.2989 168.657 56.5045Z" fill="black"/>
<path d="M132.538 88.7664C132.244 88.8154 131.823 88.8937 131.607 88.9622C131.392 89.021 131.098 89.0699 130.961 89.0699C130.824 89.0699 130.491 89.1776 130.227 89.3147C129.962 89.4518 129.532 89.628 129.267 89.7064C129.003 89.7847 128.709 89.9218 128.611 90.0099C128.513 90.098 128.19 90.333 127.887 90.5288C127.241 90.9498 125.948 92.2031 125.664 92.6926C125.547 92.8787 125.331 93.1822 125.175 93.3584C125.028 93.5347 124.9 93.7599 124.9 93.848C124.9 93.9459 124.744 94.2592 124.558 94.553C124.372 94.8467 124.215 95.1698 124.215 95.2873C124.215 95.395 124.117 95.7279 124 96.0216C123.794 96.5308 123.774 96.707 123.774 98.91C123.774 101.064 123.794 101.309 123.98 101.847C124.098 102.17 124.225 102.552 124.254 102.699C124.293 102.856 124.45 103.179 124.607 103.424C124.763 103.669 124.92 104.001 124.949 104.148C124.979 104.305 125.077 104.481 125.155 104.55C125.233 104.618 125.459 104.902 125.645 105.186C126.046 105.793 127.505 107.203 128.014 107.487C128.22 107.595 128.523 107.791 128.709 107.918C128.895 108.055 129.12 108.163 129.209 108.163C129.306 108.163 129.659 108.29 130.002 108.456C130.961 108.897 131.911 109.073 133.585 109.112C134.721 109.142 135.22 109.122 135.671 109.005C136.004 108.917 136.366 108.848 136.474 108.848C136.581 108.848 137.002 108.701 137.414 108.525C137.835 108.339 138.305 108.163 138.461 108.123C138.628 108.084 138.912 107.928 139.098 107.791C139.284 107.644 139.617 107.409 139.832 107.272C140.772 106.674 142.348 104.824 142.711 103.903C142.799 103.688 142.955 103.375 143.073 103.218C143.181 103.052 143.376 102.552 143.513 102.092C143.729 101.309 143.748 101.113 143.748 98.91C143.748 96.6287 143.739 96.5308 143.474 95.6985C143.327 95.2188 143.122 94.6998 143.014 94.553C142.897 94.3963 142.759 94.1222 142.701 93.9459C142.642 93.7697 142.476 93.4661 142.338 93.2801C142.192 93.0941 141.976 92.7808 141.859 92.5849C141.594 92.1443 140.331 90.94 139.763 90.568C139.528 90.4211 139.215 90.1959 139.068 90.0784C138.921 89.9609 138.608 89.8043 138.383 89.7455C138.158 89.6868 137.727 89.5105 137.414 89.3539C137.1 89.1972 136.728 89.0699 136.581 89.0699C136.434 89.0601 136.043 89.0014 135.72 88.9231C134.995 88.7468 133.262 88.6685 132.538 88.7664Z" fill="black"/>
<path d="M190.795 88.7763C189.287 89.021 188.837 89.119 188.386 89.3246C188.112 89.4519 187.681 89.6183 187.436 89.6966C187.192 89.775 186.859 89.9218 186.712 90.0393C186.565 90.1568 186.134 90.4505 185.762 90.6953C184.95 91.2338 184.156 92.0269 183.589 92.8787C183.354 93.2312 183.07 93.6522 182.952 93.7991C182.844 93.946 182.649 94.3474 182.521 94.6803C182.404 95.023 182.228 95.4342 182.139 95.6007C182.061 95.7671 181.963 96.0902 181.924 96.3252C181.895 96.5602 181.807 96.9714 181.728 97.2358C181.572 97.7841 181.542 100.026 181.679 100.672C181.728 100.888 181.816 101.328 181.885 101.652C181.944 101.975 182.13 102.464 182.286 102.738C182.443 103.013 182.57 103.306 182.57 103.385C182.57 103.463 182.698 103.708 182.844 103.913C183.001 104.119 183.177 104.442 183.236 104.618C183.52 105.431 185.204 107.076 186.291 107.605C186.585 107.751 186.937 107.938 187.074 108.016C187.436 108.212 189.17 108.799 189.963 108.985C190.844 109.191 192.665 109.191 193.585 108.995C194.623 108.77 196.591 108.075 196.846 107.84C196.934 107.751 197.208 107.605 197.453 107.497C198.285 107.125 199.176 106.244 200.057 104.912C200.4 104.393 200.723 103.943 200.782 103.904C200.831 103.874 200.948 103.59 201.036 103.287C201.124 102.983 201.281 102.562 201.379 102.366C201.487 102.161 201.653 101.563 201.761 101.045C202.133 99.194 201.957 96.7952 201.35 95.4342C201.213 95.1405 201.076 94.7586 201.046 94.5824C201.007 94.4062 200.841 94.0733 200.664 93.8285C200.488 93.5935 200.233 93.2019 200.096 92.9767C199.959 92.7417 199.48 92.1738 199.019 91.7136C198.559 91.2534 197.991 90.7737 197.756 90.6366C197.531 90.4995 197.139 90.2449 196.905 90.0785C196.67 89.9022 196.356 89.7358 196.209 89.6966C196.053 89.6673 195.651 89.5204 195.299 89.3637C194.917 89.1973 194.173 89.0015 193.438 88.884C192.195 88.6784 191.578 88.649 190.795 88.7763Z" fill="black"/>
<path d="M158.925 110.121C158.279 110.16 157.534 110.268 157.26 110.356C156.996 110.444 156.643 110.512 156.477 110.512C156.32 110.512 155.909 110.64 155.576 110.806C155.233 110.963 154.803 111.119 154.607 111.159C154.421 111.188 154.147 111.325 154 111.443C153.853 111.56 153.598 111.727 153.432 111.815C153.001 112.04 152.198 112.784 151.875 113.274C151.718 113.508 151.503 113.792 151.405 113.91C151.229 114.116 150.916 114.879 150.553 115.995C149.917 117.944 150.054 120.822 150.896 123.29C150.974 123.505 151.062 123.848 151.092 124.044C151.131 124.24 151.268 124.553 151.395 124.729C151.532 124.905 151.679 125.219 151.738 125.434C151.797 125.65 151.953 125.953 152.081 126.11C152.208 126.266 152.345 126.511 152.374 126.648C152.414 126.795 152.56 127.069 152.707 127.255C152.854 127.441 153.089 127.784 153.226 128.009C153.373 128.234 153.843 128.792 154.274 129.253C155.175 130.212 155.645 130.907 155.645 131.27C155.645 131.837 154.685 133.336 152.991 135.441C152.414 136.146 151.297 137.242 151.131 137.242C151.082 137.242 150.876 137.389 150.681 137.575C150.475 137.761 149.936 138.133 149.486 138.407C149.026 138.682 148.585 138.975 148.497 139.054C148.409 139.132 148.145 139.259 147.91 139.347C147.665 139.435 147.381 139.592 147.263 139.7C147.146 139.807 146.823 139.954 146.539 140.033C146.255 140.111 145.951 140.238 145.844 140.336C145.746 140.424 145.393 140.571 145.051 140.669C143.278 141.159 142.505 141.345 141.839 141.443C140.674 141.609 138.246 141.678 137.384 141.56C136.953 141.501 136.268 141.413 135.867 141.364C135.465 141.306 134.721 141.129 134.212 140.973C133.703 140.806 133.194 140.669 133.086 140.669C132.822 140.669 130.021 139.357 129.757 139.112C129.639 139.005 129.307 138.819 129.003 138.682C128.699 138.544 128.416 138.388 128.386 138.329C128.347 138.27 128.063 138.065 127.76 137.869C127.094 137.438 124.46 134.824 123.97 134.089C122.453 131.857 122.051 131.221 121.904 130.77C121.836 130.574 121.66 130.242 121.523 130.046C121.386 129.84 121.278 129.595 121.278 129.488C121.278 129.39 121.121 128.91 120.935 128.43C120.749 127.95 120.592 127.471 120.592 127.383C120.592 127.285 120.524 126.991 120.446 126.736C120.367 126.472 120.26 125.434 120.201 124.386C120.073 122.134 119.907 121.204 119.506 120.607C119.349 120.372 119.222 120.108 119.222 120.039C119.222 119.765 118.066 118.727 117.538 118.522C117.254 118.414 116.862 118.267 116.676 118.189C116.186 118.003 114.483 118.022 113.983 118.208C113.768 118.296 113.386 118.433 113.132 118.522C112.544 118.737 111.653 119.579 111.389 120.186C111.271 120.431 111.124 120.705 111.046 120.793C110.968 120.881 110.831 121.322 110.743 121.782C110.576 122.663 110.596 124.719 110.782 125.982C110.84 126.335 110.929 126.962 110.997 127.383C111.056 127.804 111.173 128.322 111.252 128.548C111.33 128.763 111.438 129.223 111.487 129.566C111.545 129.909 111.712 130.574 111.869 131.054C112.025 131.524 112.172 132.043 112.201 132.21C112.231 132.386 112.368 132.68 112.495 132.875C112.632 133.061 112.769 133.384 112.808 133.59C112.838 133.796 112.995 134.187 113.151 134.462C113.308 134.736 113.484 135.147 113.543 135.382C113.611 135.617 113.748 135.93 113.856 136.067C113.964 136.204 114.258 136.665 114.502 137.105C114.757 137.536 115.06 138.016 115.188 138.182C115.315 138.339 115.599 138.75 115.824 139.103C116.696 140.444 117.459 141.364 119.036 142.931C119.927 143.832 120.925 144.742 121.239 144.967C121.562 145.183 122.169 145.614 122.6 145.907C123.03 146.201 123.559 146.573 123.784 146.74C124.01 146.896 124.254 147.033 124.333 147.033C124.411 147.033 124.656 147.151 124.861 147.298C125.067 147.435 125.468 147.64 125.733 147.748C126.007 147.846 126.291 147.993 126.379 148.071C126.467 148.15 126.761 148.306 127.035 148.404C127.299 148.512 127.691 148.708 127.887 148.845C128.092 148.982 128.347 149.089 128.464 149.089C128.582 149.089 128.915 149.207 129.209 149.344C129.502 149.481 129.992 149.648 130.286 149.726C130.579 149.794 131.333 149.98 131.95 150.147C134.672 150.852 134.124 150.803 138.951 150.803C143.866 150.803 143.886 150.803 146.598 150.059C147.361 149.843 148.057 149.677 148.145 149.677C148.233 149.677 148.556 149.55 148.869 149.393C149.173 149.246 149.584 149.089 149.77 149.05C149.956 149.021 150.26 148.884 150.455 148.757C150.641 148.639 150.974 148.473 151.19 148.404C151.405 148.336 151.65 148.228 151.728 148.15C151.807 148.081 152.169 147.895 152.521 147.738C152.884 147.572 153.207 147.396 153.246 147.337C153.275 147.278 153.51 147.112 153.765 146.975C154.558 146.554 155.537 145.878 156.467 145.114C156.8 144.84 157.25 144.497 157.466 144.351C158.592 143.597 159.121 143.078 160.521 141.315C161.343 140.287 161.911 139.719 162.342 139.484C162.724 139.289 162.792 139.279 163.076 139.396C163.262 139.475 163.85 140.033 164.496 140.757C165.73 142.128 168.177 144.537 168.921 145.104C169.186 145.3 169.597 145.623 169.842 145.809C170.087 145.995 170.439 146.221 170.625 146.309C170.811 146.397 171.32 146.7 171.751 146.984C172.564 147.513 174.003 148.238 174.688 148.443C174.904 148.512 175.247 148.678 175.442 148.815C175.648 148.952 175.961 149.099 176.147 149.129C176.343 149.168 176.735 149.305 177.019 149.432C177.312 149.559 177.724 149.697 177.929 149.726C178.145 149.765 178.536 149.873 178.801 149.961C179.075 150.059 179.662 150.206 180.123 150.304C180.583 150.392 181.092 150.509 181.258 150.568C182.081 150.813 183.305 150.871 187.25 150.823C189.835 150.793 191.48 150.734 191.725 150.666C191.94 150.607 192.43 150.49 192.802 150.411C193.184 150.333 193.801 150.176 194.173 150.069C194.555 149.961 195.083 149.814 195.348 149.755C195.622 149.687 196.033 149.51 196.268 149.364C196.513 149.217 196.797 149.089 196.914 149.089C197.022 149.089 197.423 148.943 197.796 148.766C198.177 148.58 198.618 148.404 198.775 148.365C198.941 148.326 199.264 148.169 199.509 148.022C199.754 147.866 200.067 147.719 200.214 147.68C200.351 147.65 200.596 147.513 200.752 147.386C200.899 147.259 201.164 147.092 201.33 147.004C201.643 146.838 202.339 146.377 203.425 145.604C203.778 145.359 204.326 144.899 204.649 144.586C204.972 144.282 205.403 143.92 205.599 143.783C206.245 143.362 207.156 142.441 207.782 141.599C207.939 141.384 208.331 140.933 208.644 140.591C208.957 140.248 209.329 139.788 209.476 139.563C209.613 139.338 209.878 138.985 210.054 138.77C210.22 138.564 210.397 138.27 210.426 138.114C210.465 137.967 210.622 137.673 210.779 137.477C210.935 137.281 211.111 136.948 211.16 136.743C211.219 136.537 211.307 136.341 211.356 136.312C211.444 136.263 212.198 134.765 212.57 133.913C212.658 133.727 212.815 133.414 212.923 133.228C213.031 133.042 213.119 132.807 213.119 132.709C213.119 132.611 213.246 132.229 213.403 131.867C213.667 131.27 213.961 130.114 214.343 128.136C214.421 127.735 214.558 127.05 214.656 126.619C214.783 126.031 214.822 125.326 214.822 123.828C214.832 121.978 214.813 121.762 214.597 121.106C214.392 120.47 213.618 119.227 213.432 119.227C213.393 119.227 213.236 119.109 213.079 118.972C212.933 118.825 212.404 118.561 211.924 118.384C211.18 118.101 210.906 118.052 210.211 118.052C209.682 118.052 209.261 118.11 209.026 118.208C208.83 118.296 208.487 118.414 208.262 118.482C207.45 118.737 206.265 119.922 206.01 120.734C205.942 120.96 205.824 121.302 205.736 121.498C205.628 121.743 205.579 122.154 205.579 122.712C205.579 123.779 205.315 125.473 204.884 127.167C204.786 127.578 204.698 128.019 204.698 128.146C204.698 128.274 204.571 128.655 204.405 128.998C204.248 129.331 204.072 129.791 204.013 130.026C203.944 130.251 203.797 130.594 203.68 130.78C203.553 130.966 203.239 131.495 202.975 131.955C202.72 132.415 202.446 132.846 202.368 132.924C202.299 132.993 202.094 133.287 201.918 133.561C201.604 134.041 200.273 135.548 199.519 136.253C198.5 137.223 197.345 138.192 196.865 138.495C196.572 138.682 196.2 138.946 196.053 139.073C195.896 139.191 195.69 139.298 195.593 139.298C195.495 139.298 195.201 139.445 194.946 139.621C194.682 139.807 194.31 139.984 194.114 140.023C193.928 140.052 193.625 140.189 193.448 140.326C193.262 140.454 192.978 140.591 192.812 140.63C192.645 140.659 192.136 140.796 191.676 140.933C189.904 141.462 188.935 141.589 186.829 141.589C184.558 141.599 182.639 141.335 181.366 140.845C181.111 140.747 180.798 140.669 180.661 140.669C180.534 140.669 180.113 140.512 179.721 140.326C179.32 140.14 178.908 139.984 178.791 139.984C178.673 139.984 178.409 139.866 178.203 139.729C177.822 139.465 177.508 139.279 176.696 138.828C176.451 138.691 176.089 138.447 175.893 138.28C175.697 138.114 175.286 137.8 174.972 137.585C174.228 137.056 171.545 134.275 170.948 133.424C170.292 132.464 170.155 132.18 170.077 131.691C169.969 130.947 170.096 130.604 170.762 129.909C171.526 129.096 172.074 128.411 172.446 127.813C172.603 127.549 172.877 127.138 173.053 126.893C173.239 126.648 173.445 126.276 173.523 126.061C173.592 125.845 173.749 125.542 173.866 125.385C174.081 125.082 174.14 124.896 174.639 123.045C174.806 122.428 175.012 121.694 175.09 121.42C175.188 121.057 175.227 120.343 175.227 118.776C175.227 116.808 175.207 116.563 174.992 115.77C174.855 115.3 174.659 114.801 174.551 114.664C174.434 114.517 174.307 114.243 174.248 114.047C174.13 113.626 173.063 112.324 172.583 112.01C172.397 111.893 172.123 111.707 171.976 111.599C171.624 111.315 169.313 110.512 168.863 110.512C168.726 110.512 168.305 110.424 167.933 110.307C167.306 110.131 166.934 110.111 163.673 110.072C161.705 110.052 159.571 110.072 158.925 110.121Z" fill="black"/>
<path d="M1.26782 254.315C1.15032 254.335 0.934919 254.491 0.797843 254.658L0.543274 254.951L0.572647 258.427L0.602021 261.903L0.876173 262.138C1.27761 262.481 2.09027 262.471 2.42317 262.119C2.61899 261.903 2.66795 261.737 2.71691 260.914C2.75607 260.386 2.8344 259.867 2.89315 259.759C3.01064 259.524 3.44145 259.436 4.40098 259.436C4.97866 259.436 5.09615 259.406 5.30177 259.191C5.60529 258.897 5.61508 258.653 5.32135 258.378C5.13532 258.202 4.97866 258.163 4.41077 258.163C3.18688 258.163 2.63858 257.654 2.75607 256.606C2.78544 256.322 2.85398 256.009 2.90294 255.901C3.02043 255.696 3.5002 255.607 4.73388 255.588C5.42905 255.568 5.56613 255.539 5.78153 255.333C6.10464 255.03 6.10464 254.834 5.78153 254.53C5.53675 254.295 5.50738 254.295 3.50999 254.286C2.3938 254.276 1.38531 254.295 1.26782 254.315Z" fill="black"/>
<path d="M13.2816 254.442C11.9989 254.912 10.8338 256.743 10.8338 258.31C10.8338 259.896 11.9598 261.766 13.1935 262.226C13.8984 262.481 15.9056 262.402 16.542 262.089C17.1295 261.805 18.0401 260.983 18.2653 260.523C18.5492 259.974 18.8625 258.819 18.8625 258.349C18.8625 257.81 18.4807 256.557 18.1478 255.979C17.8149 255.412 17.1099 254.775 16.5029 254.491C15.8175 254.178 14.0942 254.148 13.2816 254.442ZM15.4846 255.793C15.9644 256.087 16.5029 256.704 16.6693 257.154C16.9043 257.761 16.826 259.044 16.5127 259.671C16.2091 260.317 15.8175 260.738 15.3377 260.953C14.8384 261.179 14.388 261.061 13.7907 260.552C13.1151 259.984 12.9879 259.622 12.9879 258.359C12.9879 257.125 13.0956 256.802 13.7418 256.185C14.3488 255.598 14.9461 255.47 15.4846 255.793Z" fill="black"/>
<path d="M24.6882 254.383C24.5218 254.452 24.3358 254.628 24.2672 254.775C24.1204 255.098 24.1008 261.443 24.2378 261.815C24.4043 262.246 24.6197 262.373 25.1778 262.373C25.638 262.373 25.7261 262.344 25.9513 262.07C26.1667 261.815 26.2059 261.678 26.2059 261.12C26.2059 260.288 26.3527 259.759 26.6171 259.622C26.7346 259.563 27.2437 259.475 27.7431 259.436C28.5068 259.377 28.6928 259.338 28.8984 259.142C29.202 258.858 29.202 258.701 28.8984 258.408C28.6928 258.192 28.5753 258.163 27.9683 258.163C26.8423 258.163 26.3234 257.83 26.2352 257.056C26.2059 256.812 26.2352 256.459 26.3038 256.254C26.4702 255.735 26.8325 255.617 28.2718 255.588C29.4369 255.568 29.4565 255.568 29.6915 255.294C29.9852 254.951 29.9852 254.912 29.6915 254.57L29.4565 254.295L27.2143 254.276C25.5499 254.256 24.9036 254.286 24.6882 254.383Z" fill="black"/>
<path d="M35.8305 254.364C35.2333 254.521 35.2137 254.628 35.2137 257.164C35.2137 260.121 35.3018 260.493 36.3299 261.57C37.0153 262.295 37.2502 262.373 38.856 262.373C40.119 262.373 40.3051 262.353 40.7555 262.138C41.7248 261.688 42.185 261.022 42.5668 259.534C42.7137 258.936 42.7529 258.437 42.7529 256.821C42.7529 254.873 42.7529 254.844 42.5179 254.57C42.3123 254.335 42.2143 254.305 41.7737 254.315C41.3625 254.325 41.2157 254.374 41.0002 254.579L40.7457 254.834L40.6967 257.213C40.6478 259.818 40.6282 259.876 39.9918 260.474C39.6099 260.836 39.1203 261.1 38.8364 261.1C38.4643 261.1 37.8671 260.709 37.5929 260.297L37.3188 259.896L37.2894 257.487C37.2796 256.165 37.2404 254.981 37.2209 254.863C37.123 254.432 36.4572 254.188 35.8305 254.364Z" fill="black"/>
<path d="M49.1759 254.335C48.422 254.491 48.4318 254.432 48.4318 258.349V261.825L48.6961 262.099C48.9115 262.334 49.0388 262.373 49.4598 262.373C50.2823 262.373 50.4977 262.001 50.576 260.444C50.5858 260.16 50.8404 259.925 51.1243 259.925C51.4572 259.925 51.8685 260.307 52.4853 261.188C53.2098 262.226 53.4057 262.373 54.1204 262.373C55.1191 262.373 55.2268 262.011 54.5512 260.963C54.1596 260.366 54.1106 260.219 54.1106 259.749C54.1106 259.357 54.1596 259.142 54.2869 259.005C54.6393 258.613 54.796 258.006 54.796 257.047C54.796 255.979 54.6589 255.549 54.1302 255C53.5427 254.383 53.3078 254.325 51.3202 254.295C50.3508 254.276 49.3815 254.295 49.1759 254.335ZM52.1916 255.754C52.5832 255.921 52.8965 256.303 53.0336 256.773C53.1609 257.252 52.9161 257.761 52.4266 257.996C52.1426 258.133 51.9468 258.153 51.4376 258.104C51.0852 258.065 50.7523 258.006 50.6935 257.977C50.5271 257.869 50.4487 256.704 50.576 256.234C50.6739 255.891 50.7425 255.803 51.0068 255.725C51.467 255.588 51.8195 255.598 52.1916 255.754Z" fill="black"/>
<path d="M61.4833 254.315C61.356 254.335 61.17 254.472 61.0623 254.609C60.8762 254.853 60.8665 255 60.8665 258.359V261.854L61.1112 262.118C61.3071 262.334 61.4245 262.373 61.8847 262.373C62.3547 262.373 62.4428 262.344 62.668 262.07L62.9226 261.766V258.398C62.9226 254.834 62.8932 254.57 62.4624 254.393C62.2274 254.305 61.7477 254.266 61.4833 254.315Z" fill="black"/>
<path d="M69.6197 254.315C69.5022 254.335 69.3064 254.462 69.1791 254.599L68.9442 254.854V258.378V261.903L69.2183 262.138C69.4925 262.373 70.1289 262.461 70.5107 262.314C70.7751 262.207 70.9513 261.727 70.9611 261.081C70.9709 260.141 71.0982 259.054 71.2059 258.946C71.3724 258.78 72.2536 259.514 72.8704 260.327C73.5264 261.208 74.3293 262.04 74.6915 262.236C75.1126 262.452 75.6217 262.412 75.8959 262.128L76.1406 261.893V258.378C76.1406 254.971 76.1308 254.854 75.935 254.599C75.6609 254.247 75.0538 254.237 74.7307 254.589C74.5251 254.814 74.4957 254.951 74.4566 256.087C74.3978 257.458 74.2314 258.065 73.9083 258.065C73.7124 258.065 72.7529 257.106 72.2731 256.42C71.7444 255.666 71.059 254.824 70.7653 254.589C70.4912 254.354 70.031 254.247 69.6197 254.315Z" fill="black"/>
<path d="M82.828 254.315C82.7007 254.335 82.5146 254.472 82.4069 254.609C82.2209 254.853 82.2111 255 82.2111 258.378V261.893L82.4559 262.128C82.7692 262.451 83.6308 262.481 83.9833 262.187C84.1987 262.021 84.2183 261.903 84.2673 260.934C84.3456 259.348 84.561 259.064 85.7751 258.976C86.5192 258.917 87.0969 259.064 87.4004 259.387C87.6158 259.622 87.6452 259.749 87.6942 260.777C87.7431 261.864 87.7627 261.913 88.0173 262.138C88.3893 262.461 88.8593 262.451 89.1726 262.118L89.4076 261.864V258.359V254.853L89.1726 254.599C88.8397 254.246 88.311 254.246 87.9781 254.599C87.7725 254.824 87.7431 254.961 87.6942 255.96C87.6452 256.949 87.6158 257.105 87.4102 257.321C86.9794 257.781 85.5695 257.898 84.8547 257.526C84.4533 257.321 84.2673 256.753 84.2673 255.754C84.2673 254.873 84.1889 254.609 83.8756 254.442C83.6406 254.315 83.1413 254.256 82.828 254.315Z" fill="black"/>
<path d="M98.3567 254.325C97.7986 254.393 97.5049 254.922 96.565 257.624C96.281 258.427 95.9775 259.23 95.8992 259.387C95.811 259.553 95.5858 260.16 95.39 260.738C95.1159 261.551 95.0571 261.835 95.1355 261.981C95.2823 262.265 95.5565 262.373 96.0656 262.373C96.6139 262.373 97.0545 262.099 97.2405 261.649C97.4168 261.227 98.0826 261.051 99.0911 261.149C99.8939 261.218 99.9037 261.227 100.227 261.707C100.521 262.138 100.893 262.373 101.304 262.373C101.715 262.373 101.96 262.226 102.136 261.883C102.273 261.619 102.263 261.551 102.077 260.983C101.96 260.64 101.823 260.317 101.784 260.258C101.735 260.199 101.451 259.455 101.157 258.603C100.863 257.752 100.57 256.968 100.491 256.851C100.423 256.743 100.237 256.254 100.08 255.784C99.796 254.912 99.3946 254.354 99.0617 254.335C98.9736 254.335 98.8365 254.325 98.7582 254.305C98.6798 254.295 98.4938 254.305 98.3567 254.325ZM98.954 257.634C99.1302 257.967 99.3456 258.75 99.3456 259.073C99.3456 259.416 99.1596 259.534 98.6407 259.534C98.1903 259.534 98.1511 259.514 98.0336 259.22C97.8966 258.897 97.9063 258.829 98.249 258.036C98.3567 257.81 98.4644 257.546 98.5036 257.448C98.5819 257.203 98.7582 257.282 98.954 257.634Z" fill="black"/>
<path d="M109.215 254.383C108.412 254.667 107.893 255.255 107.6 256.165C107.462 256.616 107.453 256.743 107.56 257.105C107.707 257.575 107.981 258.026 108.295 258.29C108.412 258.378 109.088 258.75 109.803 259.113C111.164 259.788 111.477 260.062 111.301 260.395C111.222 260.542 111.046 260.601 110.459 260.65C109.832 260.709 109.607 260.679 109.039 260.503C108.246 260.248 107.981 260.307 107.668 260.826C107.404 261.267 107.423 261.502 107.746 261.815C108.216 262.265 108.716 262.373 110.41 262.373C112.094 262.373 112.534 262.285 113.083 261.825C113.69 261.316 113.758 261.12 113.719 259.935C113.69 258.907 113.68 258.848 113.406 258.564C113.063 258.212 112.103 257.703 111.066 257.331C110.556 257.145 110.224 256.959 110.067 256.773C109.773 256.42 109.763 256.303 110.028 255.97C110.194 255.754 110.302 255.715 110.752 255.715C111.036 255.715 111.438 255.784 111.633 255.872C112.319 256.156 113.151 255.764 113.151 255.147C113.151 254.824 112.955 254.609 112.436 254.393C111.976 254.197 109.754 254.197 109.215 254.383Z" fill="black"/>
<path d="M126.869 254.344C126.173 254.511 126.173 254.481 126.173 258.329V261.766L126.428 262.07C126.653 262.334 126.741 262.373 127.192 262.373C127.75 262.373 128.092 262.197 128.229 261.835C128.278 261.707 128.347 261.002 128.376 260.248C128.416 259.504 128.474 258.858 128.523 258.819C128.592 258.741 129.111 259.387 129.111 259.553C129.111 259.72 129.796 260.689 130.021 260.836C130.442 261.11 130.716 261.13 131 260.904C131.275 260.689 131.882 259.847 132.175 259.279C132.401 258.838 132.606 258.848 132.714 259.308C132.763 259.514 132.851 259.886 132.91 260.15C132.978 260.405 133.027 260.895 133.027 261.237C133.027 261.776 133.057 261.893 133.282 262.119C133.713 262.54 134.731 262.461 134.985 261.981C135.054 261.844 135.093 260.591 135.083 258.28V254.785L134.838 254.55C134.633 254.335 134.515 254.305 133.84 254.305C133.262 254.295 133.008 254.344 132.782 254.472C132.44 254.677 132.087 255.177 131.989 255.588C131.784 256.43 130.844 257.84 130.55 257.752C130.393 257.693 129.434 256.312 129.355 256.019C129.326 255.891 129.169 255.509 129.013 255.167C128.807 254.707 128.66 254.511 128.455 254.432C128.092 254.295 127.29 254.246 126.869 254.344Z" fill="black"/>
<path d="M141.379 254.315C141.252 254.344 141.066 254.472 140.958 254.609C140.772 254.844 140.762 255 140.762 257.223C140.762 259.827 140.821 260.18 141.359 261.022C141.702 261.551 142.084 261.903 142.632 262.177C142.955 262.344 143.21 262.373 144.375 262.373C145.609 262.373 145.805 262.353 146.265 262.148C147.322 261.678 147.665 261.12 148.194 259.083C148.252 258.858 148.301 257.85 148.301 256.831C148.301 255.186 148.282 254.951 148.115 254.677C147.9 254.315 147.469 254.197 146.94 254.344C146.294 254.521 146.245 254.707 146.245 257.174C146.245 258.623 146.206 259.416 146.128 259.602C145.746 260.493 144.796 261.179 144.121 261.051C143.67 260.973 143.073 260.415 142.936 259.945C142.857 259.7 142.818 258.721 142.818 257.213V254.863L142.574 254.599C142.446 254.462 142.28 254.335 142.211 254.335C141.692 254.286 141.565 254.286 141.379 254.315Z" fill="black"/>
<path d="M155.801 254.344C154.891 254.511 154.117 255.167 153.882 255.999C153.735 256.518 153.765 257.35 153.931 257.673C154.166 258.124 154.861 258.623 155.645 258.907C157.113 259.426 157.926 260.131 157.485 260.483C157.417 260.542 157.006 260.611 156.585 260.65C155.929 260.709 155.723 260.689 155.194 260.503C154.656 260.317 154.548 260.297 154.274 260.415C153.902 260.571 153.54 261.208 153.677 261.472C153.833 261.776 154.117 261.952 154.754 262.167C155.292 262.344 155.615 262.373 156.937 262.373C158.181 262.373 158.553 262.344 158.807 262.216C159.63 261.795 159.894 261.267 159.904 260.023C159.904 259.211 159.874 259.044 159.659 258.672C159.356 258.143 159.081 257.977 157.711 257.487C156.457 257.047 156.134 256.812 156.134 256.351C156.134 255.686 156.839 255.47 157.906 255.813C158.7 256.068 158.974 256.028 159.297 255.598C159.473 255.372 159.473 255.304 159.365 255.039C159.297 254.873 159.081 254.638 158.886 254.521C158.582 254.325 158.386 254.295 157.407 254.286C156.79 254.276 156.066 254.305 155.801 254.344Z" fill="black"/>
<path d="M166.053 254.354C165.955 254.393 165.788 254.521 165.681 254.638C165.495 254.844 165.485 254.991 165.485 258.378V261.903L165.759 262.138C165.974 262.324 166.151 262.373 166.552 262.373C166.983 262.373 167.1 262.334 167.325 262.099L167.59 261.825V258.368C167.59 256.195 167.551 254.853 167.492 254.726C167.277 254.335 166.581 254.158 166.053 254.354Z" fill="black"/>
<path d="M175.716 254.393C174.6 254.707 173.788 255.49 173.347 256.665C173.19 257.105 173.161 257.37 173.19 258.339C173.22 259.455 173.23 259.504 173.631 260.317C174.121 261.316 174.59 261.825 175.295 262.138C175.756 262.344 175.971 262.373 176.98 262.373C178.213 262.373 178.654 262.275 179.271 261.864C179.936 261.433 179.995 260.865 179.408 260.513C178.967 260.239 178.771 260.268 178.164 260.66C177.459 261.12 177.263 261.159 176.725 260.953C176.128 260.728 175.579 260.131 175.315 259.455C175.149 258.995 175.119 258.76 175.158 258.065C175.178 257.605 175.276 257.047 175.374 256.821C175.599 256.263 176.265 255.754 176.882 255.666C177.381 255.598 177.606 255.676 178.448 256.175L178.869 256.43L179.3 256.224C180.083 255.842 179.956 255.098 179.016 254.579C178.566 254.344 178.409 254.305 177.391 254.276C176.588 254.256 176.098 254.295 175.716 254.393Z" fill="black"/>
<path d="M188.396 254.315C188.024 254.383 187.662 254.775 187.456 255.323C187.348 255.617 187.104 256.322 186.927 256.88C186.741 257.438 186.526 257.996 186.448 258.114C186.271 258.388 185.214 261.521 185.214 261.776C185.214 262.05 185.625 262.373 185.987 262.373C186.457 262.373 186.976 262.089 187.201 261.717C187.299 261.541 187.466 261.345 187.554 261.296C187.867 261.13 188.886 261.081 189.453 261.198C189.923 261.296 190.041 261.355 190.168 261.609C190.452 262.148 190.785 262.363 191.363 262.373C191.803 262.373 191.921 262.334 192.117 262.118C192.254 261.972 192.361 261.825 192.361 261.795C192.361 261.766 192.244 261.423 192.107 261.051C191.97 260.669 191.705 259.906 191.519 259.338C191.333 258.77 191.118 258.222 191.049 258.114C190.971 258.006 190.677 257.213 190.393 256.361C189.943 255.039 189.825 254.775 189.561 254.579C189.258 254.344 188.788 254.237 188.396 254.315ZM188.993 257.546C189.385 258.496 189.444 258.77 189.336 259.162C189.218 259.524 189.209 259.534 188.748 259.534C188.249 259.534 188.122 259.445 188.024 259.054C187.946 258.741 188.533 257.184 188.739 257.184C188.788 257.184 188.905 257.35 188.993 257.546Z" fill="black"/>
<path d="M198.54 254.364C198.412 254.403 198.236 254.54 198.128 254.667C197.962 254.873 197.952 255.108 197.942 258.329V261.766L198.197 262.07C198.52 262.461 199.01 262.491 199.362 262.128L199.607 261.893V258.378C199.607 255.02 199.597 254.853 199.411 254.618C199.196 254.335 198.863 254.237 198.54 254.364Z" fill="black"/>
<path d="M207.175 254.442C206.226 254.775 205.677 255.647 205.677 256.802C205.677 257.918 206.118 258.457 207.391 258.937C207.822 259.093 208.331 259.299 208.517 259.397C209.79 260.023 209.819 260.503 208.605 260.621C208.037 260.67 207.782 260.65 207.352 260.503C206.598 260.239 206.255 260.258 205.942 260.591C205.423 261.13 205.756 261.923 206.627 262.217C207.322 262.452 210.083 262.442 210.622 262.187C211.18 261.933 211.63 261.482 211.797 261.002C211.973 260.513 211.993 259.593 211.836 259.132C211.591 258.427 210.749 257.82 209.339 257.341C208.027 256.9 207.606 256.371 208.184 255.921C208.507 255.666 209.124 255.647 209.839 255.872C210.406 256.058 210.71 256.019 211.092 255.705C211.65 255.275 211.327 254.677 210.387 254.403C209.623 254.178 207.851 254.198 207.175 254.442Z" fill="black"/>
<path d="M225.015 254.344C224.907 254.383 224.731 254.511 224.633 254.628C224.447 254.834 224.437 255.039 224.398 257.722C224.349 261.12 224.398 261.815 224.721 262.138C224.956 262.373 224.985 262.373 226.944 262.373C229.137 262.373 229.421 262.314 230.204 261.766C231.213 261.051 231.643 260.043 231.643 258.359C231.653 256.342 231.017 255.216 229.509 254.521C229.068 254.325 228.863 254.295 227.12 254.286C226.072 254.266 225.123 254.295 225.015 254.344ZM228.569 256.038C229.313 256.596 229.568 257.164 229.568 258.329C229.568 259.397 229.431 259.798 228.902 260.346C228.021 261.267 226.816 261.374 226.337 260.591C226.16 260.297 226.141 260.092 226.141 258.437C226.141 255.862 226.268 255.588 227.472 255.647C227.982 255.666 228.138 255.725 228.569 256.038Z" fill="black"/>
<path d="M237.841 254.344C237.734 254.383 237.557 254.521 237.45 254.638C237.264 254.844 237.254 254.991 237.254 258.378V261.903L237.528 262.138C237.802 262.373 237.802 262.373 240.24 262.373C242.649 262.373 242.678 262.373 242.825 262.158C243.04 261.854 243.021 261.56 242.776 261.335C242.6 261.179 242.365 261.139 241.063 261.1C239.574 261.051 239.555 261.051 239.29 260.777C238.918 260.415 238.908 259.769 239.251 259.397C239.564 259.064 240.015 258.946 241.033 258.946C241.777 258.946 241.895 258.927 242.081 258.721C242.355 258.427 242.355 258.251 242.071 257.987C241.895 257.82 241.719 257.771 241.307 257.771C240.602 257.761 239.966 257.615 239.584 257.35C238.83 256.831 238.918 255.921 239.751 255.666C239.888 255.617 240.407 255.598 240.906 255.607C241.405 255.617 241.963 255.578 242.14 255.519C242.502 255.402 242.737 255.049 242.649 254.775C242.512 254.344 242.257 254.295 240.093 254.286C238.967 254.276 237.949 254.305 237.841 254.344Z" fill="black"/>
<path d="M255.739 254.383C255.573 254.462 255.387 254.609 255.328 254.726C255.26 254.853 255.22 256.097 255.22 258.388V261.854L255.475 262.118C255.69 262.334 255.828 262.373 256.268 262.373C256.699 262.373 256.836 262.324 257.032 262.128C257.247 261.913 257.277 261.815 257.277 261.1C257.277 260.63 257.345 260.072 257.453 259.729C257.649 259.054 257.796 258.995 258.363 259.377C258.706 259.612 259.91 260.973 260.273 261.531C260.371 261.688 260.625 261.942 260.841 262.089C261.154 262.324 261.32 262.373 261.781 262.373C262.26 262.373 262.368 262.334 262.593 262.099L262.858 261.825V258.32V254.824L262.623 254.589C262.348 254.315 261.8 254.188 261.418 254.315C260.938 254.481 260.831 254.834 260.762 256.44C260.694 257.967 260.674 258.065 260.478 258.065C260.302 258.065 259.059 256.763 258.422 255.911C257.707 254.951 257.472 254.687 257.179 254.511C256.807 254.286 256.102 254.227 255.739 254.383Z" fill="black"/>
<path d="M271.415 254.403C271.2 254.472 270.965 254.618 270.877 254.726C270.788 254.834 270.553 255.441 270.348 256.077C270.142 256.714 269.878 257.429 269.751 257.673C269.633 257.918 269.427 258.417 269.31 258.799C268.909 260.043 268.722 260.552 268.478 261.032C268.008 261.942 268.213 262.373 269.104 262.373C269.643 262.373 269.662 262.363 270.152 261.844C270.73 261.218 270.984 261.1 271.787 261.1C272.61 261.1 273.109 261.267 273.354 261.629C273.755 262.216 274.019 262.363 274.627 262.373C275.106 262.373 275.214 262.344 275.341 262.148C275.469 261.952 275.469 261.864 275.351 261.433C274.93 259.984 274.489 258.721 274.313 258.506C274.274 258.447 274.098 257.967 273.922 257.429C273.363 255.735 273.099 255.118 272.796 254.765C272.433 254.344 271.944 254.217 271.415 254.403ZM272.159 257.546C272.159 257.615 272.267 257.898 272.404 258.163C272.688 258.711 272.717 259.201 272.492 259.514C272.375 259.69 272.247 259.729 271.865 259.729C271.033 259.729 270.877 259.289 271.337 258.153C271.65 257.38 271.846 257.145 272.032 257.291C272.1 257.35 272.159 257.468 272.159 257.546Z" fill="black"/>
<path d="M281.412 254.344C281.304 254.383 281.128 254.521 281.02 254.638C280.834 254.844 280.824 254.991 280.824 258.378V261.903L281.098 262.138C281.314 262.324 281.49 262.373 281.892 262.373C282.322 262.373 282.44 262.334 282.665 262.099C282.871 261.883 282.929 261.727 282.929 261.384C282.939 260.415 283.184 259.925 283.674 259.925C284.114 259.925 284.369 260.141 284.937 261.012C285.7 262.177 285.935 262.373 286.591 262.373C287.003 262.373 287.149 262.324 287.316 262.148C287.61 261.835 287.59 261.639 287.159 260.904C286.513 259.778 286.513 259.808 286.846 259.162C287.473 257.947 287.57 257.703 287.61 257.213C287.688 256.273 287.022 254.981 286.229 254.53C285.837 254.315 285.73 254.305 283.713 254.286C282.557 254.276 281.52 254.295 281.412 254.344ZM285.201 255.999C285.573 256.41 285.642 256.9 285.416 257.458C285.26 257.82 285.162 257.928 284.839 258.036C284.339 258.212 283.478 258.124 283.223 257.869C282.969 257.615 282.88 256.753 283.057 256.254C283.174 255.911 283.253 255.842 283.654 255.705C284.281 255.49 284.839 255.598 285.201 255.999Z" fill="black"/>
<path d="M294.238 254.344C294.13 254.383 293.954 254.521 293.847 254.638C293.66 254.844 293.651 254.991 293.651 258.378V261.903L293.925 262.138C294.277 262.442 294.689 262.442 295.041 262.138C295.305 261.913 295.315 261.854 295.374 260.748C295.433 259.553 295.521 259.181 295.795 258.956C296.069 258.721 296.617 259.171 297.459 260.327C298.253 261.404 298.85 262.109 299.095 262.226C299.241 262.305 299.594 262.373 299.868 262.373C300.27 262.373 300.416 262.324 300.602 262.128L300.847 261.893V258.329V254.765L300.612 254.55C300.465 254.413 300.211 254.315 299.927 254.286C299.525 254.237 299.447 254.266 299.192 254.511C298.928 254.775 298.918 254.834 298.85 256.058C298.762 257.693 298.713 257.967 298.507 257.967C298.311 257.967 296.931 256.557 296.49 255.911C295.648 254.687 294.826 254.109 294.238 254.344Z" fill="black"/>
<path d="M317.531 254.403C317.316 254.481 317.14 254.54 317.14 254.54C317.032 254.55 316.582 255.47 316.376 256.107C316.229 256.567 316.023 257.154 315.926 257.429C315.573 258.368 315.358 259.005 315.035 259.974C314.858 260.513 314.633 261.081 314.535 261.247C314.124 261.923 314.408 262.373 315.24 262.373C315.759 262.373 315.788 262.363 316.278 261.835C316.836 261.237 317.14 261.1 317.991 261.1C318.775 261.1 319.137 261.257 319.695 261.854C320.185 262.363 320.204 262.373 320.753 262.373C321.232 262.373 321.33 262.344 321.467 262.128C321.644 261.854 321.614 261.649 321.174 260.513C321.046 260.16 320.772 259.436 320.576 258.897C320.38 258.359 320.146 257.761 320.067 257.575C319.979 257.389 319.862 257.008 319.783 256.743C319.255 254.736 318.579 254.041 317.531 254.403ZM318.481 257.84C318.824 258.564 318.863 259.122 318.618 259.494C318.491 259.69 318.383 259.729 318.001 259.729C317.414 259.729 317.306 259.651 317.189 259.162C317.1 258.741 317.189 258.359 317.58 257.595C317.894 256.978 318.109 257.037 318.481 257.84Z" fill="black"/>
<path d="M307.133 254.57C306.918 254.795 306.918 254.834 306.918 258.349V261.893L307.163 262.128C307.515 262.491 308.005 262.461 308.328 262.07L308.582 261.766V258.398C308.582 254.951 308.563 254.746 308.2 254.472C307.936 254.266 307.368 254.315 307.133 254.57Z" fill="black"/>
</svg>
